<mxfile host="app.diagrams.net" modified="2021-08-27T08:16:33.622Z" agent="5.0 (X11)" etag="tIYPdy-elFaQ_801MVSa" version="14.9.6" type="github">
  <diagram id="ZHcPt30qvFYlLZM9eR9K" name="Page-1">
    <mxGraphModel dx="1936" dy="1083" grid="1" gridSize="10" guides="1" tooltips="1" connect="1" arrows="1" fold="1" page="1" pageScale="1" pageWidth="827" pageHeight="1169" math="0" shadow="0">
      <root>
        <mxCell id="0" />
        <mxCell id="1" parent="0" />
        <mxCell id="vQ13lU-GUHry3dDnLDMD-2" value="" style="line;strokeWidth=4;html=1;perimeter=backbonePerimeter;points=[];outlineConnect=0;" vertex="1" parent="1">
          <mxGeometry x="130" y="360" width="200" height="10" as="geometry" />
        </mxCell>
        <mxCell id="vQ13lU-GUHry3dDnLDMD-5" value="" style="line;strokeWidth=4;html=1;perimeter=backbonePerimeter;points=[];outlineConnect=0;" vertex="1" parent="1">
          <mxGeometry x="350" y="360" width="200" height="10" as="geometry" />
        </mxCell>
        <mxCell id="vQ13lU-GUHry3dDnLDMD-8" value="" style="line;strokeWidth=4;direction=south;html=1;perimeter=backbonePerimeter;points=[];outlineConnect=0;" vertex="1" parent="1">
          <mxGeometry x="335" y="370" width="10" height="200" as="geometry" />
        </mxCell>
        <mxCell id="vQ13lU-GUHry3dDnLDMD-9" value="" style="strokeWidth=2;html=1;shape=mxgraph.flowchart.start_1;whiteSpace=wrap;" vertex="1" parent="1">
          <mxGeometry x="100" y="360" width="30" height="10" as="geometry" />
        </mxCell>
        <mxCell id="vQ13lU-GUHry3dDnLDMD-12" value="" style="line;strokeWidth=4;direction=south;html=1;perimeter=backbonePerimeter;points=[];outlineConnect=0;" vertex="1" parent="1">
          <mxGeometry x="335" y="580" width="10" height="175" as="geometry" />
        </mxCell>
        <mxCell id="vQ13lU-GUHry3dDnLDMD-14" value="" style="line;strokeWidth=4;direction=south;html=1;perimeter=backbonePerimeter;points=[];outlineConnect=0;" vertex="1" parent="1">
          <mxGeometry x="335" y="765" width="10" height="160" as="geometry" />
        </mxCell>
        <mxCell id="vQ13lU-GUHry3dDnLDMD-15" value="" style="strokeWidth=2;html=1;shape=mxgraph.flowchart.start_1;whiteSpace=wrap;" vertex="1" parent="1">
          <mxGeometry x="325" y="360" width="30" height="10" as="geometry" />
        </mxCell>
        <mxCell id="vQ13lU-GUHry3dDnLDMD-21" value="" style="strokeWidth=2;html=1;shape=mxgraph.flowchart.start_1;whiteSpace=wrap;" vertex="1" parent="1">
          <mxGeometry x="550" y="360" width="30" height="10" as="geometry" />
        </mxCell>
        <mxCell id="vQ13lU-GUHry3dDnLDMD-22" value="" style="strokeWidth=2;html=1;shape=mxgraph.flowchart.start_1;whiteSpace=wrap;" vertex="1" parent="1">
          <mxGeometry x="325" y="570" width="30" height="10" as="geometry" />
        </mxCell>
        <mxCell id="vQ13lU-GUHry3dDnLDMD-23" value="" style="strokeWidth=2;html=1;shape=mxgraph.flowchart.start_1;whiteSpace=wrap;" vertex="1" parent="1">
          <mxGeometry x="325" y="755" width="30" height="10" as="geometry" />
        </mxCell>
        <mxCell id="vQ13lU-GUHry3dDnLDMD-25" value="&lt;font style=&quot;font-size: 30px&quot;&gt;A&lt;/font&gt;" style="text;html=1;align=center;verticalAlign=middle;resizable=0;points=[];autosize=1;strokeColor=none;" vertex="1" parent="1">
          <mxGeometry x="100" y="325" width="30" height="30" as="geometry" />
        </mxCell>
        <mxCell id="vQ13lU-GUHry3dDnLDMD-26" value="&lt;font style=&quot;font-size: 30px&quot;&gt;B&lt;/font&gt;" style="text;html=1;align=center;verticalAlign=middle;resizable=0;points=[];autosize=1;strokeColor=none;" vertex="1" parent="1">
          <mxGeometry x="545" y="320" width="40" height="30" as="geometry" />
        </mxCell>
        <mxCell id="vQ13lU-GUHry3dDnLDMD-27" value="&lt;font style=&quot;font-size: 30px&quot;&gt;C&lt;/font&gt;" style="text;html=1;align=center;verticalAlign=middle;resizable=0;points=[];autosize=1;strokeColor=none;" vertex="1" parent="1">
          <mxGeometry x="290" y="380" width="30" height="30" as="geometry" />
        </mxCell>
        <mxCell id="vQ13lU-GUHry3dDnLDMD-28" value="&lt;font style=&quot;font-size: 30px&quot;&gt;D&lt;/font&gt;" style="text;html=1;align=center;verticalAlign=middle;resizable=0;points=[];autosize=1;strokeColor=none;" vertex="1" parent="1">
          <mxGeometry x="370" y="565" width="40" height="30" as="geometry" />
        </mxCell>
        <mxCell id="vQ13lU-GUHry3dDnLDMD-29" value="&lt;font style=&quot;font-size: 30px&quot;&gt;E&lt;/font&gt;" style="text;html=1;align=center;verticalAlign=middle;resizable=0;points=[];autosize=1;strokeColor=none;" vertex="1" parent="1">
          <mxGeometry x="375" y="745" width="30" height="30" as="geometry" />
        </mxCell>
        <mxCell id="vQ13lU-GUHry3dDnLDMD-30" value="" style="line;strokeWidth=4;direction=south;html=1;perimeter=backbonePerimeter;points=[];outlineConnect=0;" vertex="1" parent="1">
          <mxGeometry x="335" y="160" width="10" height="200" as="geometry" />
        </mxCell>
        <mxCell id="vQ13lU-GUHry3dDnLDMD-33" value="" style="strokeWidth=2;html=1;shape=mxgraph.flowchart.start_1;whiteSpace=wrap;" vertex="1" parent="1">
          <mxGeometry x="325" y="150" width="30" height="10" as="geometry" />
        </mxCell>
        <mxCell id="vQ13lU-GUHry3dDnLDMD-34" value="&lt;font style=&quot;font-size: 30px&quot;&gt;F&lt;/font&gt;" style="text;html=1;align=center;verticalAlign=middle;resizable=0;points=[];autosize=1;strokeColor=none;" vertex="1" parent="1">
          <mxGeometry x="325" y="110" width="30" height="30" as="geometry" />
        </mxCell>
      </root>
    </mxGraphModel>
  </diagram>
</mxfile>
